<svg width="1200" height="800" viewBox="0 0 1200 800" fill="none" xmlns="http://www.w3.org/2000/svg">
<rect width="1200" height="800" fill="#D6F7E2"/>
<path d="M450.788 416V386.6H453.896V413.312H470.36V416H450.788ZM483.55 416.21C481.422 416.21 479.504 415.734 477.796 414.782C476.116 413.802 474.786 412.472 473.806 410.792C472.826 409.084 472.336 407.138 472.336 404.954C472.336 402.742 472.826 400.796 473.806 399.116C474.786 397.436 476.116 396.12 477.796 395.168C479.476 394.216 481.394 393.74 483.55 393.74C485.734 393.74 487.666 394.216 489.346 395.168C491.054 396.12 492.384 397.436 493.336 399.116C494.316 400.796 494.806 402.742 494.806 404.954C494.806 407.138 494.316 409.084 493.336 410.792C492.384 412.472 491.054 413.802 489.346 414.782C487.638 415.734 485.706 416.21 483.55 416.21ZM483.55 413.564C485.146 413.564 486.56 413.214 487.792 412.514C489.024 411.786 489.99 410.778 490.69 409.49C491.418 408.174 491.782 406.662 491.782 404.954C491.782 403.218 491.418 401.706 490.69 400.418C489.99 399.13 489.024 398.136 487.792 397.436C486.56 396.708 485.16 396.344 483.592 396.344C482.024 396.344 480.624 396.708 479.392 397.436C478.16 398.136 477.18 399.13 476.452 400.418C475.724 401.706 475.36 403.218 475.36 404.954C475.36 406.662 475.724 408.174 476.452 409.49C477.18 410.778 478.16 411.786 479.392 412.514C480.624 413.214 482.01 413.564 483.55 413.564ZM514.589 416V411.128L514.463 410.33V402.182C514.463 400.306 513.931 398.864 512.867 397.856C511.831 396.848 510.277 396.344 508.205 396.344C506.777 396.344 505.419 396.582 504.131 397.058C502.843 397.534 501.751 398.164 500.855 398.948L499.511 396.722C500.631 395.77 501.975 395.042 503.543 394.538C505.111 394.006 506.763 393.74 508.499 393.74C511.355 393.74 513.553 394.454 515.093 395.882C516.661 397.282 517.445 399.424 517.445 402.308V416H514.589ZM506.987 416.21C505.335 416.21 503.893 415.944 502.661 415.412C501.457 414.852 500.533 414.096 499.889 413.144C499.245 412.164 498.923 411.044 498.923 409.784C498.923 408.636 499.189 407.6 499.721 406.676C500.281 405.724 501.177 404.968 502.409 404.408C503.669 403.82 505.349 403.526 507.449 403.526H515.051V405.752H507.533C505.405 405.752 503.921 406.13 503.081 406.886C502.269 407.642 501.863 408.58 501.863 409.7C501.863 410.96 502.353 411.968 503.333 412.724C504.313 413.48 505.685 413.858 507.449 413.858C509.129 413.858 510.571 413.48 511.775 412.724C513.007 411.94 513.903 410.82 514.463 409.364L515.135 411.422C514.575 412.878 513.595 414.04 512.195 414.908C510.823 415.776 509.087 416.21 506.987 416.21ZM534.323 416.21C532.223 416.21 530.333 415.734 528.653 414.782C527.001 413.83 525.699 412.514 524.747 410.834C523.795 409.126 523.319 407.166 523.319 404.954C523.319 402.714 523.795 400.754 524.747 399.074C525.699 397.394 527.001 396.092 528.653 395.168C530.333 394.216 532.223 393.74 534.323 393.74C536.255 393.74 537.977 394.174 539.489 395.042C541.029 395.91 542.247 397.184 543.143 398.864C544.067 400.516 544.529 402.546 544.529 404.954C544.529 407.334 544.081 409.364 543.185 411.044C542.289 412.724 541.071 414.012 539.531 414.908C538.019 415.776 536.283 416.21 534.323 416.21ZM534.533 413.564C536.101 413.564 537.501 413.214 538.733 412.514C539.993 411.786 540.973 410.778 541.673 409.49C542.401 408.174 542.765 406.662 542.765 404.954C542.765 403.218 542.401 401.706 541.673 400.418C540.973 399.13 539.993 398.136 538.733 397.436C537.501 396.708 536.101 396.344 534.533 396.344C532.993 396.344 531.607 396.708 530.375 397.436C529.143 398.136 528.163 399.13 527.435 400.418C526.707 401.706 526.343 403.218 526.343 404.954C526.343 406.662 526.707 408.174 527.435 409.49C528.163 410.778 529.143 411.786 530.375 412.514C531.607 413.214 532.993 413.564 534.533 413.564ZM542.849 416V409.364L543.143 404.912L542.723 400.46V384.836H545.705V416H542.849ZM554.01 416V393.95H556.992V416H554.01ZM555.522 389.078C554.906 389.078 554.388 388.868 553.968 388.448C553.548 388.028 553.338 387.524 553.338 386.936C553.338 386.348 553.548 385.858 553.968 385.466C554.388 385.046 554.906 384.836 555.522 384.836C556.138 384.836 556.656 385.032 557.076 385.424C557.496 385.816 557.706 386.306 557.706 386.894C557.706 387.51 557.496 388.028 557.076 388.448C556.684 388.868 556.166 389.078 555.522 389.078ZM576.545 393.74C578.337 393.74 579.905 394.09 581.249 394.79C582.621 395.462 583.685 396.498 584.441 397.898C585.225 399.298 585.617 401.062 585.617 403.19V416H582.635V403.484C582.635 401.16 582.047 399.41 580.871 398.234C579.723 397.03 578.099 396.428 575.999 396.428C574.431 396.428 573.059 396.75 571.883 397.394C570.735 398.01 569.839 398.92 569.195 400.124C568.579 401.3 568.271 402.728 568.271 404.408V416H565.289V393.95H568.145V399.998L567.683 398.864C568.383 397.268 569.503 396.022 571.043 395.126C572.583 394.202 574.417 393.74 576.545 393.74ZM603.08 424.358C601.064 424.358 599.132 424.064 597.284 423.476C595.436 422.888 593.938 422.048 592.79 420.956L594.302 418.688C595.338 419.612 596.612 420.34 598.124 420.872C599.664 421.432 601.288 421.712 602.996 421.712C605.796 421.712 607.854 421.054 609.17 419.738C610.486 418.45 611.144 416.434 611.144 413.69V408.188L611.564 404.408L611.27 400.628V393.95H614.126V413.312C614.126 417.12 613.188 419.906 611.312 421.67C609.464 423.462 606.72 424.358 603.08 424.358ZM602.534 415.16C600.434 415.16 598.544 414.712 596.864 413.816C595.184 412.892 593.854 411.618 592.874 409.994C591.922 408.37 591.446 406.508 591.446 404.408C591.446 402.308 591.922 400.46 592.874 398.864C593.854 397.24 595.184 395.98 596.864 395.084C598.544 394.188 600.434 393.74 602.534 393.74C604.494 393.74 606.258 394.146 607.826 394.958C609.394 395.77 610.64 396.974 611.564 398.57C612.488 400.166 612.95 402.112 612.95 404.408C612.95 406.704 612.488 408.65 611.564 410.246C610.64 411.842 609.394 413.06 607.826 413.9C606.258 414.74 604.494 415.16 602.534 415.16ZM602.828 412.514C604.452 412.514 605.894 412.178 607.154 411.506C608.414 410.806 609.408 409.854 610.136 408.65C610.864 407.418 611.228 406.004 611.228 404.408C611.228 402.812 610.864 401.412 610.136 400.208C609.408 399.004 608.414 398.066 607.154 397.394C605.894 396.694 604.452 396.344 602.828 396.344C601.232 396.344 599.79 396.694 598.502 397.394C597.242 398.066 596.248 399.004 595.52 400.208C594.82 401.412 594.47 402.812 594.47 404.408C594.47 406.004 594.82 407.418 595.52 408.65C596.248 409.854 597.242 410.806 598.502 411.506C599.79 412.178 601.232 412.514 602.828 412.514ZM660.968 393.74C662.76 393.74 664.314 394.09 665.63 394.79C666.974 395.462 668.01 396.498 668.738 397.898C669.494 399.298 669.872 401.062 669.872 403.19V416H666.89V403.484C666.89 401.16 666.33 399.41 665.21 398.234C664.118 397.03 662.564 396.428 660.548 396.428C659.036 396.428 657.72 396.75 656.6 397.394C655.508 398.01 654.654 398.92 654.038 400.124C653.45 401.3 653.156 402.728 653.156 404.408V416H650.174V403.484C650.174 401.16 649.614 399.41 648.494 398.234C647.374 397.03 645.806 396.428 643.79 396.428C642.306 396.428 641.004 396.75 639.884 397.394C638.764 398.01 637.896 398.92 637.28 400.124C636.692 401.3 636.398 402.728 636.398 404.408V416H633.416V393.95H636.272V399.914L635.81 398.864C636.482 397.268 637.56 396.022 639.044 395.126C640.556 394.202 642.334 393.74 644.378 393.74C646.534 393.74 648.368 394.286 649.88 395.378C651.392 396.442 652.372 398.052 652.82 400.208L651.644 399.746C652.288 397.954 653.422 396.512 655.046 395.42C656.698 394.3 658.672 393.74 660.968 393.74ZM691.777 416V411.128L691.651 410.33V402.182C691.651 400.306 691.119 398.864 690.055 397.856C689.019 396.848 687.465 396.344 685.393 396.344C683.965 396.344 682.607 396.582 681.319 397.058C680.031 397.534 678.939 398.164 678.043 398.948L676.699 396.722C677.819 395.77 679.163 395.042 680.731 394.538C682.299 394.006 683.951 393.74 685.687 393.74C688.543 393.74 690.741 394.454 692.281 395.882C693.849 397.282 694.633 399.424 694.633 402.308V416H691.777ZM684.175 416.21C682.523 416.21 681.081 415.944 679.849 415.412C678.645 414.852 677.721 414.096 677.077 413.144C676.433 412.164 676.111 411.044 676.111 409.784C676.111 408.636 676.377 407.6 676.909 406.676C677.469 405.724 678.365 404.968 679.597 404.408C680.857 403.82 682.537 403.526 684.637 403.526H692.239V405.752H684.721C682.593 405.752 681.109 406.13 680.269 406.886C679.457 407.642 679.051 408.58 679.051 409.7C679.051 410.96 679.541 411.968 680.521 412.724C681.501 413.48 682.873 413.858 684.637 413.858C686.317 413.858 687.759 413.48 688.963 412.724C690.195 411.94 691.091 410.82 691.651 409.364L692.323 411.422C691.763 412.878 690.783 414.04 689.383 414.908C688.011 415.776 686.275 416.21 684.175 416.21ZM714.114 416.21C712.21 416.21 710.488 415.776 708.948 414.908C707.408 414.012 706.176 412.738 705.252 411.086C704.356 409.406 703.908 407.362 703.908 404.954C703.908 402.546 704.356 400.516 705.252 398.864C706.148 397.184 707.366 395.91 708.906 395.042C710.446 394.174 712.182 393.74 714.114 393.74C716.214 393.74 718.09 394.216 719.742 395.168C721.422 396.092 722.738 397.408 723.69 399.116C724.642 400.796 725.118 402.742 725.118 404.954C725.118 407.194 724.642 409.154 723.69 410.834C722.738 412.514 721.422 413.83 719.742 414.782C718.09 415.734 716.214 416.21 714.114 416.21ZM702.732 424.148V393.95H705.588V400.586L705.294 404.996L705.714 409.448V424.148H702.732ZM713.904 413.564C715.472 413.564 716.872 413.214 718.104 412.514C719.336 411.786 720.316 410.778 721.044 409.49C721.772 408.174 722.136 406.662 722.136 404.954C722.136 403.246 721.772 401.748 721.044 400.46C720.316 399.172 719.336 398.164 718.104 397.436C716.872 396.708 715.472 396.344 713.904 396.344C712.336 396.344 710.922 396.708 709.662 397.436C708.43 398.164 707.45 399.172 706.722 400.46C706.022 401.748 705.672 403.246 705.672 404.954C705.672 406.662 706.022 408.174 706.722 409.49C707.45 410.778 708.43 411.786 709.662 412.514C710.922 413.214 712.336 413.564 713.904 413.564ZM730.876 416.21C730.26 416.21 729.728 415.986 729.28 415.538C728.86 415.09 728.65 414.544 728.65 413.9C728.65 413.228 728.86 412.682 729.28 412.262C729.728 411.842 730.26 411.632 730.876 411.632C731.492 411.632 732.01 411.842 732.43 412.262C732.878 412.682 733.102 413.228 733.102 413.9C733.102 414.544 732.878 415.09 732.43 415.538C732.01 415.986 731.492 416.21 730.876 416.21ZM739.776 416.21C739.16 416.21 738.628 415.986 738.18 415.538C737.76 415.09 737.55 414.544 737.55 413.9C737.55 413.228 737.76 412.682 738.18 412.262C738.628 411.842 739.16 411.632 739.776 411.632C740.392 411.632 740.91 411.842 741.33 412.262C741.778 412.682 742.002 413.228 742.002 413.9C742.002 414.544 741.778 415.09 741.33 415.538C740.91 415.986 740.392 416.21 739.776 416.21ZM748.677 416.21C748.061 416.21 747.529 415.986 747.081 415.538C746.661 415.09 746.451 414.544 746.451 413.9C746.451 413.228 746.661 412.682 747.081 412.262C747.529 411.842 748.061 411.632 748.677 411.632C749.293 411.632 749.811 411.842 750.231 412.262C750.679 412.682 750.903 413.228 750.903 413.9C750.903 414.544 750.679 415.09 750.231 415.538C749.811 415.986 749.293 416.21 748.677 416.21Z" fill="#3990A3"/>
</svg>
