<svg width="50" height="50" viewBox="0 0 50 50" fill="none" xmlns="http://www.w3.org/2000/svg">
<path d="M25.0098 0C25.4883 0 25.9473 0.224609 26.2403 0.605469L43.1446 22.3145C43.5157 22.793 43.5841 23.4277 43.3204 23.9648C43.0567 24.502 42.5098 24.8437 41.9141 24.8437H30.7813V48.4375C30.7813 49.2969 30.0782 50 29.2188 50H20.7813C19.9219 50 19.2188 49.2969 19.2188 48.4375V24.8535H8.086C7.4903 24.8535 6.93365 24.5117 6.67975 23.9746C6.42584 23.4375 6.48444 22.793 6.85553 22.3242L23.7794 0.605469C24.0723 0.224609 24.5313 0 25.0098 0Z" fill="#1B1A1A"/>
</svg>
