<svg width="50" height="50" viewBox="0 0 50 50" fill="none" xmlns="http://www.w3.org/2000/svg">
<path d="M41.1074 17.5663C41.1076 17.6031 41.1132 17.6389 41.1132 17.6758C41.1132 28.984 31.257 38.1836 19.1406 38.1836H12.907C15.5154 45.0874 22.5606 50 30.8593 50H48.5351C49.1374 50 49.6781 49.631 49.8984 49.0702C50.1187 48.5095 49.9728 47.8715 49.5307 47.4609L45.5239 43.7444C48.4221 40.5786 50 36.5142 50 32.3242C50 26.2542 46.4767 20.7496 41.1074 17.5663Z" fill="#1B1A1A"/>
<path d="M0.469238 32.7147C0.2533 32.9149 0.102691 33.1755 0.037054 33.4625C-0.0285832 33.7495 -0.00620199 34.0497 0.101279 34.3238C0.208759 34.5979 0.396351 34.8333 0.639586 34.9992C0.882821 35.1651 1.17041 35.2539 1.46484 35.2539H19.1406C29.6406 35.2539 38.1836 27.3689 38.1836 17.6758C38.1836 7.98262 29.6406 0 19.1406 0C8.64063 0 0 7.98262 0 17.6758C0 21.8657 1.57783 25.8325 4.47607 28.9982L0.469238 32.7147ZM10.3516 8.88672H27.9297C28.7394 8.88672 29.3945 9.54189 29.3945 10.3516C29.3945 11.1612 28.7394 11.8164 27.9297 11.8164H10.3516C9.54189 11.8164 8.88672 11.1612 8.88672 10.3516C8.88672 9.54189 9.54189 8.88672 10.3516 8.88672ZM10.3516 14.7461H27.9297C28.7394 14.7461 29.3945 15.4013 29.3945 16.2109C29.3945 17.0206 28.7394 17.6758 27.9297 17.6758H10.3516C9.54189 17.6758 8.88672 17.0206 8.88672 16.2109C8.88672 15.4013 9.54189 14.7461 10.3516 14.7461ZM10.3516 20.6055H27.9297C28.7394 20.6055 29.3945 21.2606 29.3945 22.0703C29.3945 22.88 28.7394 23.5352 27.9297 23.5352H10.3516C9.54189 23.5352 8.88672 22.88 8.88672 22.0703C8.88672 21.2606 9.54189 20.6055 10.3516 20.6055Z" fill="#1B1A1A"/>
</svg>
