<svg width="50" height="50" viewBox="0 0 50 50" fill="none" xmlns="http://www.w3.org/2000/svg">
<path d="M25 9.15527e-05C11.2151 9.15527e-05 0.00012207 11.215 0.00012207 25C0.00012207 38.785 11.2151 49.9999 25 49.9999C38.785 49.9999 49.9999 38.7851 49.9999 25C49.9999 11.2149 38.785 9.15527e-05 25 9.15527e-05ZM25 46.8749C12.9382 46.8749 3.12512 37.0618 3.12512 25C3.12512 12.9382 12.9382 3.12509 25 3.12509C37.0618 3.12509 46.8749 12.9381 46.8749 25C46.8749 37.0618 37.0618 46.8749 25 46.8749ZM38.8672 25C38.8672 25.863 38.1676 26.5625 37.3047 26.5625H26.5625V37.3047C26.5625 38.1677 25.8629 38.8672 25 38.8672C24.1371 38.8672 23.4375 38.1677 23.4375 37.3047V26.5625H12.6953C11.8324 26.5625 11.1328 25.863 11.1328 25C11.1328 24.137 11.8324 23.4375 12.6953 23.4375H23.4375V12.6953C23.4375 11.8323 24.1371 11.1328 25 11.1328C25.8629 11.1328 26.5625 11.8323 26.5625 12.6953V23.4375H37.3047C38.1676 23.4375 38.8672 24.1371 38.8672 25Z" fill="#F7F7F7"/>
</svg>
